<!-- Generator: Adobe Illustrator 18.0.0, SVG Export Plug-In  -->
<svg version="1.1"
	 xmlns="http://www.w3.org/2000/svg" xmlns:xlink="http://www.w3.org/1999/xlink" xmlns:a="http://ns.adobe.com/AdobeSVGViewerExtensions/3.0/"
	 x="0px" y="0px" width="311.2px" height="72.2px" viewBox="0 0 311.2 72.2" enable-background="new 0 0 311.2 72.2"
	 xml:space="preserve">
<defs>
</defs>
<g>
	<g>
		<path fill="#263D67" d="M84,54.3c-0.7,0.6-1.6,1-2.7,1.2c-1.1,0.3-2.2,0.4-3.3,0.4c-1.4,0-2.7-0.2-3.9-0.7
			c-1.2-0.5-2.2-1.3-3.1-2.4s-1.6-2.5-2.1-4.3c-0.5-1.8-0.8-4-0.8-6.6c0-2.7,0.3-5,0.9-6.7c0.6-1.8,1.3-3.2,2.3-4.3s2-1.8,3.2-2.2
			c1.2-0.4,2.4-0.6,3.6-0.7c1.3,0,2.3,0.1,3.3,0.3c0.9,0.2,1.7,0.4,2.3,0.7l-1,4.3c-0.5-0.3-1.1-0.5-1.7-0.6
			c-0.7-0.1-1.4-0.2-2.3-0.2c-1.8,0-3.1,0.8-4.1,2.3c-0.9,1.5-1.4,3.9-1.4,7.2c0,1.4,0.1,2.7,0.3,3.9c0.2,1.2,0.6,2.2,1,3
			c0.5,0.8,1.1,1.5,1.8,2c0.7,0.5,1.6,0.7,2.6,0.7c0.9,0,1.7-0.1,2.3-0.4c0.6-0.2,1.2-0.5,1.7-0.9L84,54.3L84,54.3z M84.6,41.9
			c0-4.5,0.8-8,2.3-10.4c1.6-2.4,3.9-3.6,7.1-3.6c1.7,0,3.1,0.3,4.3,1c1.2,0.7,2.2,1.6,3,2.8c0.8,1.2,1.3,2.7,1.7,4.4
			c0.4,1.7,0.6,3.6,0.6,5.8c0,4.5-0.8,8-2.4,10.4c-1.6,2.4-4,3.6-7.1,3.6c-1.7,0-3.1-0.3-4.3-1c-1.2-0.7-2.2-1.6-2.9-2.8
			c-0.8-1.2-1.3-2.7-1.7-4.4C84.8,46,84.6,44,84.6,41.9L84.6,41.9z M89.7,41.9c0,1.4,0.1,2.6,0.2,3.8c0.2,1.2,0.4,2.2,0.8,3
			c0.4,0.8,0.8,1.5,1.4,2c0.6,0.5,1.2,0.7,2.1,0.7c1.5,0,2.6-0.8,3.3-2.3c0.7-1.5,1.1-3.9,1.1-7.2c0-1.3-0.1-2.5-0.2-3.7
			c-0.2-1.2-0.4-2.2-0.7-3s-0.8-1.5-1.4-2c-0.6-0.5-1.3-0.7-2.1-0.7C91.2,32.4,89.7,35.6,89.7,41.9z M106.4,28.8
			c1.1-0.2,2.2-0.4,3.4-0.5c1-0.1,2.1-0.1,3.1-0.2c1.1,0,2.2,0.1,3.2,0.3c1,0.2,2,0.6,2.8,1.2c0.8,0.6,1.5,1.4,2,2.3
			c0.5,1,0.7,2.2,0.7,3.7c0,2.2-0.4,3.9-1.2,5.3c-0.8,1.4-1.9,2.3-3.3,2.8l1.5,1.2l4.9,10.3H118l-4.7-10.6l-2.1-0.5v11.1h-4.8
			C106.4,55.3,106.4,28.8,106.4,28.8z M111.3,41h1.6c1.2,0,2.1-0.4,2.7-1.1c0.6-0.7,0.9-1.9,0.9-3.4c0-1.2-0.3-2.1-0.8-2.8
			c-0.5-0.7-1.3-1.1-2.4-1.1c-0.4,0-0.8,0-1.2,0c-0.4,0-0.7,0.1-0.9,0.2C111.3,32.8,111.3,41,111.3,41z M125.7,28.5
			c0.5-0.1,1-0.1,1.6-0.2c0.6,0,1.2-0.1,1.8-0.1c0.6,0,1.2-0.1,1.7-0.1s1.1,0,1.5,0c2.1,0,3.9,0.3,5.3,1c1.4,0.7,2.6,1.6,3.4,2.8
			c0.9,1.2,1.5,2.6,1.8,4.3c0.4,1.7,0.5,3.5,0.5,5.6c0,1.9-0.2,3.6-0.5,5.3c-0.3,1.7-1,3.2-1.8,4.5c-0.9,1.3-2,2.3-3.5,3.1
			c-1.5,0.8-3.3,1.2-5.6,1.2c-0.3,0-0.8,0-1.3,0c-0.6,0-1.1-0.1-1.8-0.1c-0.6,0-1.2-0.1-1.8-0.1c-0.4,0-0.9-0.1-1.3-0.1V28.5z
			 M132.8,32.6c-0.4,0-0.8,0-1.2,0c-0.3,0-0.7,0-1,0.1v18.5c0.1,0,0.2,0,0.4,0.1c0.2,0,0.4,0,0.6,0l0.6,0c0.2,0,0.3,0,0.4,0
			c1.1,0,2.1-0.3,2.8-0.8c0.7-0.5,1.3-1.3,1.7-2.1c0.4-0.9,0.7-1.9,0.9-3.1c0.2-1.2,0.3-2.4,0.3-3.7c0-1.2-0.1-2.3-0.2-3.4
			c-0.1-1.1-0.4-2.1-0.8-2.9c-0.4-0.8-1-1.5-1.7-2C134.9,32.8,133.9,32.6,132.8,32.6z M146.2,28.5h13.4v4.4h-8.6v6.6h7.8V44h-7.8
			v6.9h8.7v4.4h-13.6V28.5z M162.7,28.8c1.1-0.2,2.2-0.4,3.4-0.5c1-0.1,2.1-0.1,3.1-0.2c1.1,0,2.2,0.1,3.2,0.3c1,0.2,2,0.6,2.8,1.2
			c0.8,0.6,1.5,1.4,2,2.3c0.5,1,0.7,2.2,0.7,3.7c0,2.2-0.4,3.9-1.2,5.3c-0.8,1.4-1.9,2.3-3.3,2.8l1.5,1.2l4.9,10.3h-5.6l-4.7-10.6
			l-2.1-0.5v11.1h-4.8L162.7,28.8L162.7,28.8z M167.5,41h1.6c1.2,0,2.1-0.4,2.7-1.1c0.6-0.7,0.9-1.9,0.9-3.4c0-1.2-0.3-2.1-0.8-2.8
			c-0.5-0.7-1.3-1.1-2.4-1.1c-0.4,0-0.8,0-1.2,0c-0.4,0-0.7,0.1-0.9,0.2L167.5,41L167.5,41z M180.4,41.9c0-4.5,0.8-8,2.3-10.4
			c1.6-2.4,3.9-3.6,7.1-3.6c1.7,0,3.1,0.3,4.3,1c1.2,0.7,2.2,1.6,3,2.8c0.8,1.2,1.3,2.7,1.7,4.4s0.6,3.6,0.6,5.8
			c0,4.5-0.8,8-2.4,10.4c-1.6,2.4-4,3.6-7.1,3.6c-1.7,0-3.1-0.3-4.3-1c-1.2-0.7-2.2-1.6-2.9-2.8c-0.8-1.2-1.3-2.7-1.7-4.4
			C180.6,46,180.4,44,180.4,41.9L180.4,41.9z M185.4,41.9c0,1.4,0.1,2.6,0.2,3.8c0.2,1.2,0.4,2.2,0.8,3c0.4,0.8,0.8,1.5,1.4,2
			c0.6,0.5,1.2,0.7,2.1,0.7c1.5,0,2.6-0.8,3.3-2.3c0.7-1.5,1.1-3.9,1.1-7.2c0-1.3-0.1-2.5-0.2-3.7c-0.2-1.2-0.4-2.2-0.7-3
			s-0.8-1.5-1.4-2c-0.6-0.5-1.3-0.7-2.1-0.7C186.9,32.4,185.4,35.6,185.4,41.9z M226.8,41.5l0.5-5.1h-0.2l-1.4,4.6l-4.4,9.4h-1.6
			l-4.6-9.5l-1.4-4.6h-0.2l0.7,5.2v13.9h-4.6V28.5h4.6l5.6,11.6l0.9,3.3h0.2l0.9-3.4l5.3-11.5h4.6v26.8h-4.8L226.8,41.5L226.8,41.5z
			 M245.9,49.3h-6.3l-1.6,6.1h-4.8l7.8-27h3.8l7.8,27h-5.1L245.9,49.3L245.9,49.3z M240.6,45.3h4.4l-1.5-6.2l-0.6-4.2h-0.2l-0.7,4.3
			L240.6,45.3L240.6,45.3z M258.3,41.7l-5.9-13.2h5.8l3.1,7.7l0.7,2.9l0.7-2.9l3.3-7.7h5.2l-6.1,12.9l6.4,13.9h-5.6l-3.6-8.2l-0.8-3
			l-0.8,3l-3.6,8.2h-5.3L258.3,41.7L258.3,41.7z M69.3,13.1h2v10.9h-2V13.1z M75.2,18.6l-0.7-1.9h-0.1l0.2,1.9v5.4h-1.8V13h1.5
			l3.1,5.5l0.7,1.9h0.1l-0.2-1.8v-5.4h1.8V24h-1.5L75.2,18.6L75.2,18.6z M84.3,19.4l0.2,1.9h0.1l0.2-1.9l1.6-6.4h2.1L85.2,24h-1.5
			l-3.3-10.9h2.3L84.3,19.4L84.3,19.4z M89,13.1h5.4v1.8H91v2.7h3.2v1.8H91v2.8h3.5v1.8H89L89,13.1L89,13.1z M95.7,13.2
			c0.4-0.1,0.9-0.2,1.4-0.2c0.5,0,0.9-0.1,1.3-0.1c0.4,0,0.9,0,1.3,0.1s0.8,0.2,1.1,0.5c0.3,0.2,0.6,0.6,0.8,0.9
			c0.2,0.4,0.3,0.9,0.3,1.5c0,0.9-0.2,1.6-0.5,2.1c-0.3,0.6-0.8,0.9-1.3,1.1l0.6,0.5l2,4.2h-2.3l-1.9-4.3l-0.8-0.2v4.5h-2
			C95.7,23.9,95.7,13.2,95.7,13.2z M97.6,18.1h0.7c0.5,0,0.9-0.1,1.1-0.4c0.2-0.3,0.4-0.8,0.4-1.4c0-0.5-0.1-0.8-0.3-1.1
			c-0.2-0.3-0.5-0.4-1-0.4c-0.2,0-0.3,0-0.5,0c-0.2,0-0.3,0-0.4,0.1V18.1z M107.3,21.1c0-0.3-0.1-0.6-0.3-0.8
			c-0.2-0.3-0.5-0.5-0.7-0.7c-0.3-0.2-0.6-0.4-1-0.6c-0.3-0.2-0.7-0.5-1-0.8c-0.3-0.3-0.6-0.6-0.7-1c-0.2-0.4-0.3-0.9-0.3-1.4
			c0-0.5,0.1-1,0.2-1.3c0.2-0.4,0.4-0.7,0.7-0.9c0.3-0.2,0.6-0.4,1-0.5c0.4-0.1,0.8-0.2,1.2-0.2c0.5,0,1,0.1,1.5,0.2
			c0.5,0.1,0.8,0.2,1.1,0.4l-0.6,1.7c-0.2-0.1-0.4-0.2-0.8-0.3c-0.4-0.1-0.7-0.2-1.1-0.2c-0.4,0-0.7,0.1-0.9,0.2
			c-0.2,0.2-0.3,0.4-0.3,0.7c0,0.3,0.1,0.5,0.3,0.8c0.2,0.2,0.4,0.4,0.7,0.6c0.3,0.2,0.6,0.4,1,0.6c0.3,0.2,0.7,0.5,1,0.8
			c0.3,0.3,0.5,0.6,0.7,1c0.2,0.4,0.3,0.9,0.3,1.4c0,0.5-0.1,1-0.2,1.4c-0.2,0.4-0.4,0.7-0.7,1c-0.3,0.3-0.7,0.5-1.1,0.6
			c-0.4,0.1-0.9,0.2-1.4,0.2c-0.6,0-1.2-0.1-1.7-0.2c-0.5-0.1-0.9-0.3-1.1-0.4l0.6-1.8c0.2,0.1,0.5,0.2,0.9,0.4s0.8,0.2,1.2,0.2
			C106.8,22.4,107.3,21.9,107.3,21.1L107.3,21.1z M110.5,13.1h2v10.9h-2C110.5,23.9,110.5,13.1,110.5,13.1z M113.8,18.5
			c0-1.8,0.3-3.2,0.9-4.2c0.6-1,1.6-1.4,2.9-1.4c0.7,0,1.3,0.1,1.7,0.4c0.5,0.3,0.9,0.6,1.2,1.1c0.3,0.5,0.5,1.1,0.7,1.8
			c0.2,0.7,0.2,1.5,0.2,2.3c0,1.8-0.3,3.2-1,4.2c-0.6,1-1.6,1.4-2.9,1.4c-0.7,0-1.3-0.1-1.7-0.4c-0.5-0.3-0.9-0.7-1.2-1.1
			c-0.3-0.5-0.5-1.1-0.7-1.8C113.8,20.1,113.7,19.3,113.8,18.5z M115.8,18.5c0,0.5,0,1.1,0.1,1.5c0.1,0.5,0.2,0.9,0.3,1.2
			c0.1,0.3,0.3,0.6,0.6,0.8c0.2,0.2,0.5,0.3,0.8,0.3c0.6,0,1.1-0.3,1.4-0.9c0.3-0.6,0.4-1.6,0.4-2.9c0-0.5,0-1-0.1-1.5
			c0-0.4-0.2-0.8-0.3-1.2c-0.1-0.3-0.3-0.6-0.6-0.8c-0.2-0.2-0.5-0.3-0.9-0.3C116.4,14.6,115.8,15.9,115.8,18.5L115.8,18.5z
			 M125,18.6l-0.7-1.9h-0.1l0.2,1.9v5.4h-1.8V13h1.5l3.1,5.5l0.7,1.9h0.1l-0.2-1.8v-5.4h1.8V24h-1.5L125,18.6L125,18.6z M131,13.1
			h5.4v1.8h-3.5v2.7h3.2v1.8h-3.2v2.8h3.5v1.8H131V13.1L131,13.1z M141.5,21.1c0-0.3-0.1-0.6-0.3-0.8c-0.2-0.3-0.5-0.5-0.7-0.7
			c-0.3-0.2-0.6-0.4-1-0.6c-0.3-0.2-0.7-0.5-1-0.8c-0.3-0.3-0.6-0.6-0.7-1c-0.2-0.4-0.3-0.9-0.3-1.4c0-0.5,0.1-1,0.2-1.3
			c0.2-0.4,0.4-0.7,0.7-0.9c0.3-0.2,0.6-0.4,1-0.5c0.4-0.1,0.8-0.2,1.2-0.2c0.5,0,1,0.1,1.5,0.2c0.5,0.1,0.8,0.2,1.1,0.4l-0.6,1.7
			c-0.2-0.1-0.4-0.2-0.8-0.3c-0.4-0.1-0.7-0.2-1.1-0.2c-0.4,0-0.7,0.1-0.9,0.2c-0.2,0.2-0.3,0.4-0.3,0.7c0,0.3,0.1,0.5,0.3,0.8
			c0.2,0.2,0.4,0.4,0.7,0.6c0.3,0.2,0.6,0.4,1,0.6c0.3,0.2,0.7,0.5,1,0.8c0.3,0.3,0.5,0.6,0.7,1c0.2,0.4,0.3,0.9,0.3,1.4
			c0,0.5-0.1,1-0.2,1.4c-0.2,0.4-0.4,0.7-0.7,1c-0.3,0.3-0.7,0.5-1.1,0.6c-0.4,0.1-0.9,0.2-1.4,0.2c-0.6,0-1.2-0.1-1.7-0.2
			c-0.5-0.1-0.9-0.3-1.1-0.4l0.6-1.8c0.2,0.1,0.5,0.2,0.9,0.4s0.8,0.2,1.2,0.2C140.9,22.4,141.5,21.9,141.5,21.1L141.5,21.1z"/>
	</g>
	<path fill="#263D67" d="M0,0c9,2.6,18.2,3.8,27.8,3.8S46.9,2.6,56.5,0c-2.6,10.6-3.8,22.2-3.8,34.7c0,12.5,1.3,25,3.8,37.5
		c-8.5-2.6-17.6-3.8-27.3-3.8c-9.7,0-19.4,1.3-29.1,3.8c2.6-12,3.8-24,3.8-36C3.8,24.1,2.6,12.1,0,0z"/>
	<g>
		<g>
			<path id="a_1_" fill="#263D67" d="M3.8,5c7.7,2.2,15.7,3.3,23.9,3.3c8.2,0,16.4-1.1,24.6-3.3C50.1,14.1,49,24.1,49,34.8
				s1.1,21.5,3.3,32.2c-7.3-2.2-15.1-3.3-23.5-3.3c-8.3,0-16.7,1.1-25,3.3C6,56.8,7.1,46.5,7.1,36.1C7.1,25.7,6,15.4,3.8,5z"/>
		</g>
		<path fill="none" stroke="#F5A623" stroke-width="2" d="M51,6.4C51.5,6.2,52,6.1,52.6,6l-1.2-1.2C51.2,5.3,51.1,5.8,51,6.4z
			 M51,65.6c0.1,0.5,0.2,1.1,0.3,1.6l1.3-1.2C52.1,65.9,51.5,65.7,51,65.6z M5.1,65.6c-0.5,0.1-1,0.3-1.6,0.4l1.2,1.2
			C4.9,66.7,5,66.1,5.1,65.6L5.1,65.6z M5.2,6.4C5,5.9,4.9,5.3,4.8,4.8L3.6,6C4.1,6.1,4.6,6.3,5.2,6.4z M5.2,6.4
			C12.4,8.3,20,9.3,27.7,9.3c7.8,0,15.5-1,23.3-2.9c-2,8.8-3,18.2-3,28.4c0,10.3,1,20.5,3,30.8c-7-1.9-14.3-2.9-22.2-2.9
			c-7.9,0-15.8,1-23.7,2.9c2-9.7,3-19.6,3-29.6C8.1,26.2,7.1,16.3,5.2,6.4z"/>
	</g>
	<path fill="#F5A623" d="M23.5,28.6c0,0,10-1,12.1-0.5c2.1,0.5,3.9,1.1,4.4,2.3c0.5,1.3,0.5,3.6,0.5,3.6s-0.5-0.5-1,0
		c-0.5,0.5-0.8,1.5,0,2.3c0.8,0.8,2.1,0.8,2.1,1.5c0,0.4-1.4,2.4-2.3,5.2c-1,3.1-1.5,7-1.5,7s-1.3,1-2.6,0.8
		c-1.3-0.3,0.3-2.3,0.3-2.3s1.3-5.2,0.8-6.4s-4.6-2.8-5.2-5.2h-3.3c0,0-2.6,0.3-2.8,2.6c-0.3,2.3-0.5,7.7-0.5,7.7s0.3,3.1-1,3.6
		c-1.3,0.5-2.3-0.3-2.1-1c0.3-0.8,1.3-1.3,1.3-1.3l-0.5-4.1l-0.3,3.1c0,0-0.8,2.8-1.8,2.8c-1,0-1.5,0-1.5-1s1.5-1.3,1.5-1.3
		s1-6.2,0.5-8.5c-0.5-2.3-2.3-5.2-2.1-7.2c0.3-2.1,0.5-2.8,0.3-3.6c-0.3-0.8-1-2.3-0.8-3.1c0,0-2.8-1.3-2.8-3.4c0,0,1.8-1.3,4.1,1
		c0,0,3.1-0.3,3.9,0.3c0,0,2.6-2.6,4.1-2.3c0,0,0.8,2.8-3.1,4.1c0,0,0.2,0.6,0,1C23.7,27,23.2,27.7,23.5,28.6"/>
	<g enable-background="new    ">
		<path fill="#4A4A4A" d="M175.2,68.4c-0.4-0.5-0.7-1.2-0.7-2.1l1.2-0.3c0,0.6,0.2,1.1,0.4,1.5s0.5,0.6,1,0.6c0.4,0,0.6-0.1,0.8-0.3
			s0.3-0.5,0.3-0.8c0-0.4-0.1-0.7-0.3-1c-0.2-0.3-0.4-0.6-0.8-0.9l-1.6-1.4c-0.3-0.3-0.6-0.6-0.7-0.9s-0.2-0.7-0.2-1.2
			c0-0.7,0.2-1.3,0.6-1.7c0.4-0.4,1-0.6,1.7-0.6c0.8,0,1.3,0.2,1.7,0.6c0.4,0.4,0.6,1,0.7,1.9l-1.2,0.3c0-0.6-0.1-1-0.3-1.3
			c-0.2-0.3-0.5-0.5-0.9-0.5c-0.8,0-1.2,0.4-1.2,1.1c0,0.3,0,0.5,0.1,0.7c0.1,0.2,0.3,0.4,0.5,0.6l1.6,1.4c0.4,0.4,0.8,0.8,1,1.2
			c0.3,0.4,0.4,0.9,0.4,1.5c0,0.7-0.2,1.3-0.6,1.7c-0.4,0.4-1,0.6-1.7,0.6C176.2,69.1,175.6,68.9,175.2,68.4z"/>
		<path fill="#4A4A4A" d="M180.9,68.9c-0.2-0.2-0.4-0.4-0.5-0.6c-0.1-0.2-0.2-0.5-0.2-0.8c0-0.5,0.1-1,0.3-1.3
			c0.2-0.3,0.5-0.6,0.9-0.8c0.4-0.2,0.9-0.4,1.5-0.7v-0.5c0-0.5,0-0.8-0.1-1c-0.1-0.2-0.3-0.3-0.6-0.3c-0.5,0-0.7,0.3-0.7,1v0.3
			l-1.3,0l0-0.3c0-0.7,0.2-1.2,0.6-1.5c0.3-0.3,0.8-0.5,1.5-0.5c0.7,0,1.1,0.2,1.4,0.5c0.3,0.4,0.4,0.9,0.4,1.7v3.2
			c0,0.5,0,1.1,0.1,1.7h-1.2c-0.1-0.5-0.1-0.8-0.2-1c-0.1,0.3-0.3,0.6-0.5,0.8c-0.2,0.2-0.5,0.3-0.9,0.3
			C181.3,69.1,181.1,69,180.9,68.9z M182.6,67.8c0.2-0.1,0.3-0.3,0.3-0.4v-2c-0.4,0.2-0.6,0.4-0.8,0.5c-0.2,0.1-0.3,0.3-0.5,0.5
			c-0.1,0.2-0.2,0.4-0.2,0.7c0,0.3,0.1,0.5,0.2,0.7c0.1,0.2,0.3,0.2,0.5,0.2C182.2,68,182.4,67.9,182.6,67.8z"/>
		<path fill="#4A4A4A" d="M186.1,68.8c-0.3-0.2-0.5-0.5-0.6-0.9c-0.1-0.4-0.2-0.9-0.2-1.5v-1.6c0-0.6,0.1-1.1,0.2-1.5
			c0.1-0.4,0.3-0.7,0.6-0.9c0.3-0.2,0.7-0.3,1.3-0.3c0.5,0,0.9,0.1,1.2,0.2c0.3,0.2,0.5,0.4,0.6,0.7c0.1,0.3,0.2,0.7,0.2,1.2v0.4
			h-1.2v-0.4c0-0.5-0.1-0.8-0.2-1c-0.1-0.2-0.3-0.3-0.6-0.3c-0.2,0-0.4,0-0.5,0.1c-0.1,0.1-0.2,0.3-0.2,0.5c0,0.2-0.1,0.5-0.1,0.9
			v2.2c0,0.4,0,0.7,0.1,0.9s0.1,0.4,0.2,0.4c0.1,0.1,0.3,0.1,0.5,0.1c0.3,0,0.5-0.1,0.6-0.3c0.1-0.2,0.1-0.5,0.1-0.9v-0.6h1.2v0.5
			c0,0.8-0.1,1.3-0.4,1.7c-0.3,0.4-0.8,0.6-1.5,0.6C186.8,69.1,186.4,69,186.1,68.8z"/>
		<path fill="#4A4A4A" d="M190.7,68.4c-0.3-0.4-0.5-1.1-0.5-1.9v-2c0-0.8,0.2-1.5,0.5-1.9c0.3-0.4,0.8-0.7,1.6-0.7
			c0.7,0,1.2,0.2,1.6,0.7c0.3,0.4,0.5,1.1,0.5,1.9v2c0,0.8-0.2,1.5-0.5,1.9c-0.3,0.4-0.8,0.7-1.6,0.7
			C191.5,69.1,191,68.9,190.7,68.4z M192.8,67.9c0.1-0.1,0.2-0.3,0.2-0.5c0-0.2,0-0.5,0-0.8v-2.2c0-0.3,0-0.6,0-0.8
			s-0.1-0.4-0.2-0.5s-0.3-0.2-0.5-0.2s-0.4,0.1-0.5,0.2c-0.1,0.1-0.2,0.3-0.2,0.5s0,0.5,0,0.8v2.2c0,0.3,0,0.6,0,0.8
			c0,0.2,0.1,0.4,0.2,0.5c0.1,0.1,0.3,0.2,0.5,0.2S192.7,68.1,192.8,67.9z"/>
		<path fill="#4A4A4A" d="M195.7,68.6c-0.3-0.4-0.5-0.8-0.6-1.4l1.1-0.3c0.1,0.4,0.2,0.8,0.3,1s0.4,0.3,0.6,0.3
			c0.2,0,0.4-0.1,0.6-0.2c0.1-0.1,0.2-0.3,0.2-0.5c0-0.4-0.2-0.7-0.6-1l-1.2-1c-0.3-0.2-0.5-0.5-0.6-0.7c-0.1-0.3-0.2-0.6-0.2-0.9
			c0-0.6,0.2-1,0.5-1.3c0.3-0.3,0.8-0.5,1.3-0.5c0.5,0,0.9,0.2,1.2,0.5c0.3,0.3,0.5,0.8,0.5,1.3l-0.9,0.3c-0.1-0.4-0.1-0.7-0.3-0.9
			s-0.3-0.3-0.6-0.3c-0.2,0-0.4,0.1-0.5,0.2s-0.2,0.3-0.2,0.5c0,0.3,0.1,0.5,0.3,0.7l1.2,1.1c0.3,0.3,0.5,0.6,0.7,0.8
			c0.2,0.3,0.3,0.6,0.3,1c0,0.6-0.2,1-0.5,1.3c-0.3,0.3-0.8,0.5-1.4,0.5C196.5,69.1,196,68.9,195.7,68.6z"/>
		<path fill="#4A4A4A" d="M203,68.4c-0.3-0.4-0.4-1.2-0.4-2.2v-1.3c0-0.9,0.1-1.6,0.4-2.2c0.2-0.5,0.7-0.8,1.3-0.8
			c0.4,0,0.8,0.2,1.2,0.5v-3.2h1.3V69h-1.3v-0.4c-0.3,0.4-0.7,0.5-1.1,0.5C203.7,69.1,203.3,68.9,203,68.4z M205.4,67.8v-4.5
			c-0.3-0.2-0.6-0.3-0.8-0.3c-0.5,0-0.8,0.5-0.8,1.5v2c0,0.6,0.1,1,0.2,1.3c0.1,0.3,0.3,0.4,0.6,0.4C204.9,68.1,205.1,68,205.4,67.8
			z"/>
		<path fill="#4A4A4A" d="M208.7,68.8c-0.3-0.2-0.5-0.5-0.6-0.9c-0.1-0.4-0.2-0.9-0.2-1.6v-1.6c0-1,0.2-1.7,0.4-2.1
			c0.3-0.4,0.8-0.7,1.6-0.7c0.6,0,1,0.1,1.3,0.3c0.3,0.2,0.5,0.6,0.6,1s0.1,1,0.1,1.7v0.6h-2.7v0.9c0,0.4,0,0.7,0,0.9
			c0,0.2,0.1,0.4,0.2,0.5c0.1,0.1,0.3,0.2,0.5,0.2c0.3,0,0.5-0.1,0.6-0.3c0.1-0.2,0.2-0.5,0.2-0.9v-0.4h1.2v0.3
			c0,0.7-0.2,1.3-0.5,1.7c-0.3,0.4-0.8,0.6-1.5,0.6C209.4,69.1,209,69,208.7,68.8z M210.6,64.9v-0.6c0-0.5,0-0.8-0.1-1
			c-0.1-0.2-0.3-0.3-0.6-0.3c-0.2,0-0.4,0-0.5,0.1c-0.1,0.1-0.2,0.3-0.2,0.5s-0.1,0.5-0.1,1v0.4H210.6z"/>
		<path fill="#4A4A4A" d="M215.9,59.3h2.4c0.8,0,1.5,0.2,1.8,0.7c0.4,0.5,0.6,1.1,0.6,2c0,0.8-0.2,1.4-0.6,1.8
			c-0.4,0.4-1,0.7-1.8,0.7h-1.1V69h-1.4V59.3z M217.9,63.5c0.4,0,0.7,0,0.9-0.1c0.2-0.1,0.4-0.2,0.5-0.5s0.1-0.5,0.1-0.9
			c0-0.5,0-0.9-0.1-1.1c-0.1-0.2-0.2-0.4-0.4-0.5c-0.2-0.1-0.5-0.1-1-0.1h-0.6v3.3H217.9z"/>
		<path fill="#4A4A4A" d="M221.8,68.4c-0.3-0.4-0.5-1.1-0.5-1.9v-2c0-0.8,0.2-1.5,0.5-1.9c0.3-0.4,0.8-0.7,1.6-0.7
			c0.7,0,1.2,0.2,1.6,0.7c0.3,0.4,0.5,1.1,0.5,1.9v2c0,0.8-0.2,1.5-0.5,1.9c-0.3,0.4-0.8,0.7-1.6,0.7
			C222.7,69.1,222.1,68.9,221.8,68.4z M223.9,67.9c0.1-0.1,0.2-0.3,0.2-0.5c0-0.2,0-0.5,0-0.8v-2.2c0-0.3,0-0.6,0-0.8
			c0-0.2-0.1-0.4-0.2-0.5c-0.1-0.1-0.3-0.2-0.5-0.2c-0.2,0-0.4,0.1-0.5,0.2c-0.1,0.1-0.2,0.3-0.2,0.5c0,0.2,0,0.5,0,0.8v2.2
			c0,0.3,0,0.6,0,0.8c0,0.2,0.1,0.4,0.2,0.5c0.1,0.1,0.3,0.2,0.5,0.2C223.6,68.1,223.8,68.1,223.9,67.9z"/>
		<path fill="#4A4A4A" d="M226.7,59.3h1.3V69h-1.3V59.3z"/>
		<path fill="#4A4A4A" d="M229.4,59.7h1.3V61h-1.3V59.7z M229.4,62.1h1.3V69h-1.3V62.1z"/>
		<path fill="#4A4A4A" d="M232.1,62.1h1.3v0.6c0.4-0.4,0.8-0.6,1.3-0.6c0.6,0,1.1,0.3,1.3,0.8c0.2,0.5,0.3,1.1,0.3,1.8v1.7
			c0,0.8-0.1,1.5-0.4,2.1c-0.3,0.5-0.7,0.8-1.3,0.8c-0.4,0-0.8-0.2-1.2-0.6v2.8h-1.3V62.1z M234.9,67.6c0.1-0.3,0.1-0.8,0.1-1.4
			v-1.7c0-0.5,0-0.9-0.1-1.2c-0.1-0.3-0.3-0.4-0.6-0.4c-0.3,0-0.6,0.1-0.9,0.4v4.4c0.3,0.2,0.6,0.3,0.9,0.3
			C234.6,68.1,234.8,67.9,234.9,67.6z"/>
		<path fill="#4A4A4A" d="M237.5,62.1h1.3v1c0.2-0.4,0.5-0.7,0.7-0.8c0.3-0.2,0.5-0.2,0.8-0.2c0.1,0,0.1,0,0.2,0v1.4
			c-0.3-0.1-0.5-0.1-0.7-0.1c-0.2,0-0.4,0.1-0.6,0.2s-0.3,0.3-0.5,0.5V69h-1.3V62.1z"/>
		<path fill="#4A4A4A" d="M241.6,68.4c-0.3-0.4-0.5-1.1-0.5-1.9v-2c0-0.8,0.2-1.5,0.5-1.9c0.3-0.4,0.8-0.7,1.6-0.7
			c0.7,0,1.2,0.2,1.6,0.7c0.3,0.4,0.5,1.1,0.5,1.9v2c0,0.8-0.2,1.5-0.5,1.9c-0.3,0.4-0.8,0.7-1.6,0.7
			C242.4,69.1,241.9,68.9,241.6,68.4z M243.7,67.9c0.1-0.1,0.2-0.3,0.2-0.5c0-0.2,0-0.5,0-0.8v-2.2c0-0.3,0-0.6,0-0.8
			c0-0.2-0.1-0.4-0.2-0.5s-0.3-0.2-0.5-0.2s-0.4,0.1-0.5,0.2s-0.2,0.3-0.2,0.5s0,0.5,0,0.8v2.2c0,0.3,0,0.6,0,0.8
			c0,0.2,0.1,0.4,0.2,0.5c0.1,0.1,0.3,0.2,0.5,0.2S243.6,68.1,243.7,67.9z"/>
		<path fill="#4A4A4A" d="M246.4,62.1h1.3v0.6c0.4-0.4,0.8-0.6,1.3-0.6c0.6,0,1.1,0.3,1.3,0.8c0.2,0.5,0.3,1.1,0.3,1.8v1.7
			c0,0.8-0.1,1.5-0.4,2.1c-0.3,0.5-0.7,0.8-1.3,0.8c-0.4,0-0.8-0.2-1.2-0.6v2.8h-1.3V62.1z M249.1,67.6c0.1-0.3,0.1-0.8,0.1-1.4
			v-1.7c0-0.5,0-0.9-0.1-1.2c-0.1-0.3-0.3-0.4-0.6-0.4c-0.3,0-0.6,0.1-0.9,0.4v4.4c0.3,0.2,0.6,0.3,0.9,0.3
			C248.9,68.1,249.1,67.9,249.1,67.6z"/>
		<path fill="#4A4A4A" d="M251.8,59.7h1.3V61h-1.3V59.7z M251.8,62.1h1.3V69h-1.3V62.1z"/>
		<path fill="#4A4A4A" d="M254.6,59.3h1.3V69h-1.3V59.3z"/>
		<path fill="#4A4A4A" d="M257.9,68.8c-0.3-0.2-0.5-0.5-0.6-0.9c-0.1-0.4-0.2-0.9-0.2-1.6v-1.6c0-1,0.2-1.7,0.5-2.1
			c0.3-0.4,0.8-0.7,1.6-0.7c0.6,0,1,0.1,1.3,0.3c0.3,0.2,0.5,0.6,0.6,1s0.1,1,0.1,1.7v0.6h-2.7v0.9c0,0.4,0,0.7,0,0.9
			s0.1,0.4,0.2,0.5c0.1,0.1,0.3,0.2,0.5,0.2c0.3,0,0.5-0.1,0.6-0.3c0.1-0.2,0.1-0.5,0.1-0.9v-0.4h1.2v0.3c0,0.7-0.2,1.3-0.5,1.7
			c-0.3,0.4-0.8,0.6-1.5,0.6C258.6,69.1,258.2,69,257.9,68.8z M259.8,64.9v-0.6c0-0.5,0-0.8-0.1-1c-0.1-0.2-0.3-0.3-0.6-0.3
			c-0.2,0-0.4,0-0.5,0.1c-0.1,0.1-0.2,0.3-0.2,0.5c0,0.2-0.1,0.5-0.1,1v0.4H259.8z"/>
		<path fill="#4A4A4A" d="M262.3,62.1h1.3v0.7c0.6-0.5,1.1-0.8,1.7-0.8c0.4,0,0.6,0.1,0.8,0.4c0.2,0.3,0.2,0.6,0.2,1V69H265v-5.2
			c0-0.3,0-0.5-0.1-0.6s-0.2-0.2-0.4-0.2c-0.3,0-0.6,0.1-0.9,0.4V69h-1.3V62.1z"/>
		<path fill="#4A4A4A" d="M267.9,68.4c-0.3-0.4-0.5-1.1-0.5-1.9v-2c0-0.8,0.2-1.5,0.5-1.9c0.3-0.4,0.8-0.7,1.6-0.7
			c0.7,0,1.2,0.2,1.6,0.7c0.3,0.4,0.5,1.1,0.5,1.9v2c0,0.8-0.2,1.5-0.5,1.9c-0.3,0.4-0.8,0.7-1.6,0.7
			C268.7,69.1,268.2,68.9,267.9,68.4z M269.9,67.9c0.1-0.1,0.2-0.3,0.2-0.5c0-0.2,0-0.5,0-0.8v-2.2c0-0.3,0-0.6,0-0.8
			c0-0.2-0.1-0.4-0.2-0.5c-0.1-0.1-0.3-0.2-0.5-0.2c-0.2,0-0.4,0.1-0.5,0.2c-0.1,0.1-0.2,0.3-0.2,0.5c0,0.2,0,0.5,0,0.8v2.2
			c0,0.3,0,0.6,0,0.8c0,0.2,0.1,0.4,0.2,0.5c0.1,0.1,0.3,0.2,0.5,0.2C269.7,68.1,269.8,68.1,269.9,67.9z"/>
	</g>
	<g enable-background="new    ">
		<path fill="#263D67" d="M276.9,43.7h4.8v1.5h-2.7v3.3h2.1v1.4h-2.1v3.8h2.7V55h-4.8V43.7z"/>
		<path fill="#263D67" d="M282.7,53.1h1.8V55h-1.8V53.1z"/>
		<path fill="#263D67" d="M285.9,43.7h2V55h-2V43.7z"/>
		<path fill="#263D67" d="M289.5,53.1h1.8V55h-1.8V53.1z"/>
		<path fill="#263D67" d="M292.8,43.7h2.7c1.2,0,2.1,0.2,2.7,0.7c0.6,0.5,0.9,1.2,0.9,2.3c0,0.7-0.1,1.3-0.3,1.8
			c-0.2,0.5-0.6,0.8-1.1,1l1.6,5.6h-2.1l-1.4-5.2h-1V55h-2.1V43.7z M295.5,48.5c0.6,0,1-0.1,1.3-0.4c0.2-0.3,0.4-0.7,0.4-1.3
			c0-0.6-0.1-1-0.3-1.3c-0.2-0.3-0.6-0.4-1.2-0.4h-0.8v3.4H295.5z"/>
		<path fill="#263D67" d="M300.4,53.1h1.8V55h-1.8V53.1z"/>
		<path fill="#263D67" d="M303.7,43.7h2.1v9.9h2.8V55h-4.8V43.7z"/>
		<path fill="#263D67" d="M309.4,53.1h1.8V55h-1.8V53.1z"/>
	</g>
</g>
</svg>
