<!-- Generator: Adobe Illustrator 18.0.0, SVG Export Plug-In  -->
<svg version="1.1"
	 xmlns="http://www.w3.org/2000/svg" xmlns:xlink="http://www.w3.org/1999/xlink" xmlns:a="http://ns.adobe.com/AdobeSVGViewerExtensions/3.0/"
	 x="0px" y="0px" width="55.6px" height="71.1px" viewBox="0 0 55.6 71.1" enable-background="new 0 0 55.6 71.1"
	 xml:space="preserve">
<defs>
</defs>
<g>
	<path fill="#263D67" d="M0,1.8c-0.2-1.1,0.8-2,1.9-1.8c8.2,2.1,16.7,3.2,25.4,3.2c8.8,0,17.5-1.1,26.3-3.2c1.1-0.3,2.1,0.7,1.8,1.8
		c-2.2,10-3.3,20.7-3.3,32.3c0,11.7,1.1,23.4,3.4,35.1c0.2,1.1-0.8,2-1.9,1.8c-7.8-2.1-16.2-3.2-25-3.2c-8.9,0-17.9,1.1-26.8,3.3
		c-1.1,0.3-2.1-0.7-1.8-1.8c2.2-11.2,3.4-22.4,3.4-33.7C3.4,24.4,2.3,13.1,0,1.8z"/>
	<g>
		<g>
			<path id="a_1_" fill="#263D67" d="M3.4,4.4C11.1,6.6,19,7.7,27.2,7.7c8.2,0,16.4-1.1,24.6-3.3c-2.2,9.1-3.3,19.1-3.3,29.8
				s1.1,21.5,3.3,32.2c-7.3-2.2-15.1-3.3-23.5-3.3c-8.3,0-16.7,1.1-25,3.3c2.2-10.2,3.3-20.5,3.3-30.9C6.7,25.1,5.6,14.8,3.4,4.4z"
				/>
		</g>
		<path fill="none" stroke="#F5A623" stroke-width="2" d="M50.5,5.8c0.5-0.1,1.1-0.3,1.6-0.4l-1.2-1.2C50.8,4.7,50.6,5.3,50.5,5.8z
			 M50.6,65c0.1,0.5,0.2,1.1,0.3,1.6l1.3-1.2C51.6,65.3,51.1,65.2,50.6,65z M4.7,65.1c-0.5,0.1-1,0.3-1.6,0.4l1.2,1.2
			C4.5,66.1,4.6,65.6,4.7,65.1L4.7,65.1z M4.7,5.8C4.6,5.3,4.5,4.8,4.4,4.2L3.1,5.4C3.6,5.5,4.2,5.7,4.7,5.8z M4.7,5.8
			C12,7.8,19.5,8.7,27.2,8.7c7.8,0,15.5-1,23.3-2.9c-2,8.8-3,18.2-3,28.4c0,10.3,1,20.5,3,30.8c-7-1.9-14.3-2.9-22.2-2.9
			c-7.9,0-15.8,1-23.7,2.9c2-9.7,3-19.6,3-29.6C7.7,25.6,6.7,15.7,4.7,5.8z"/>
	</g>
	<path fill="#F5A623" d="M23,28c0,0,10-1,12.1-0.5c2.1,0.5,3.9,1.1,4.4,2.3c0.5,1.3,0.5,3.6,0.5,3.6s-0.5-0.5-1,0
		c-0.5,0.5-0.8,1.5,0,2.3c0.8,0.8,2.1,0.8,2.1,1.5c0,0.4-1.4,2.4-2.3,5.2c-1,3.1-1.5,7-1.5,7s-1.3,1-2.6,0.8
		c-1.3-0.3,0.3-2.3,0.3-2.3s1.3-5.2,0.8-6.4s-4.6-2.8-5.2-5.2h-3.3c0,0-2.6,0.3-2.8,2.6c-0.3,2.3-0.5,7.7-0.5,7.7s0.3,3.1-1,3.6
		c-1.3,0.5-2.3-0.3-2.1-1c0.3-0.8,1.3-1.3,1.3-1.3l-0.5-4.1l-0.3,3.1c0,0-0.8,2.8-1.8,2.8c-1,0-1.5,0-1.5-1s1.5-1.3,1.5-1.3
		s1-6.2,0.5-8.5c-0.5-2.3-2.3-5.2-2.1-7.2c0.3-2.1,0.5-2.8,0.3-3.6c-0.3-0.8-1-2.3-0.8-3.1c0,0-2.8-1.3-2.8-3.4c0,0,1.8-1.3,4.1,1
		c0,0,3.1-0.3,3.9,0.3c0,0,2.6-2.6,4.1-2.3c0,0,0.8,2.8-3.1,4.1c0,0,0.2,0.6,0,1C23.3,26.4,22.7,27.1,23,28"/>
</g>
</svg>
