<!-- Generator: Adobe Illustrator 18.0.0, SVG Export Plug-In  -->
<svg version="1.1"
	 xmlns="http://www.w3.org/2000/svg" xmlns:xlink="http://www.w3.org/1999/xlink" xmlns:a="http://ns.adobe.com/AdobeSVGViewerExtensions/3.0/"
	 x="0px" y="0px" width="468.1px" height="554.3px" viewBox="0 0 468.1 554.3" enable-background="new 0 0 468.1 554.3"
	 xml:space="preserve">
<defs>
</defs>
<path fill="#FFFFFF" d="M441.6,510.1c-7.4-3.1-14.5-4.9-20.5-5.5c-1.8-26.9-16.1-61.4-16.1-83.6c0-64.1,0-192.3,0-256.4
	c0-27-6.6-80.8-20.8-109.6c5.2-2.8,10.6-6.7,15.5-11.7c14.8-14.8,20.8-32.8,13.5-40.1c-7.4-7.4-25.3-1.3-40.2,13.5
	c-6.1,6.1-10.6,12.6-13.4,18.8c-25-4.7-69.6-0.2-100.2-0.2h-60.6c-37,0-83.3-10.1-109.8,8.9c-2.1-4.5-4.9-9.3-8.5-14.1
	C69.3,15.1,55.6,6.5,49.9,10.8c-5.7,4.3-1.3,19.8,9.9,34.7C64.7,52,70,57.2,75,60.7c-13.8,25.8-21.7,77.2-21.7,103.9
	c0,64.1,0,192.3,0,256.4c0,23.5-11.8,57.3-12.3,84.5c-4.5,1-9.4,2.4-14.4,4.5c-17.2,7.2-28.8,18.4-26.1,25c2.7,6.5,18.9,6,36-1.2
	c3-1.3,5.8-2.7,8.4-4.2c1.9,4.3,4.6,8.1,8.4,11.3c27.3,22.9,110.2,9.4,145.6,9.4h60.6c38.7,0,124.9,12.2,153-14.8
	c2.6-2.5,4.5-5.5,5.9-8.8c3.8,2.6,8.3,5,13.3,7.2c17.2,7.2,33.3,7.8,36.1,1.2C470.4,528.5,458.8,517.3,441.6,510.1z"/>
<path fill="#263D67" d="M102.4,141.1c-0.9-4.9,3.6-8.9,8.5-8c36.6,9.4,74.5,14.3,113.3,14.3c39.2,0,78-4.9,117.3-14.3
	c4.9-1.3,9.4,3.1,8,8c-9.8,44.6-14.7,92.3-14.7,144c0,52.2,4.9,104.3,15.2,156.5c0.9,4.9-3.6,8.9-8.5,8
	c-34.8-9.4-72.2-14.3-111.5-14.3c-39.7,0-79.8,4.9-119.5,14.7c-4.9,1.3-9.4-3.1-8-8c9.8-49.9,15.2-99.9,15.2-150.3
	C117.5,241.9,112.6,191.5,102.4,141.1z"/>
<g>
	<g>
		<path id="a_2_" fill="#263D67" d="M117.5,152.7c34.3,9.8,69.6,14.7,106.1,14.7s73.1-4.9,109.7-14.7
			c-9.8,40.6-14.7,85.2-14.7,132.9s4.9,95.9,14.7,143.6c-32.5-9.8-67.3-14.7-104.8-14.7c-37,0-74.5,4.9-111.5,14.7
			c9.8-45.5,14.7-91.4,14.7-137.8C132.3,245,127.3,199.1,117.5,152.7z"/>
	</g>
	<path fill="none" stroke="#F5A623" stroke-width="2" d="M327.5,158.9c2.2-0.4,4.9-1.3,7.1-1.8l-5.4-5.4
		C328.9,154,328,156.7,327.5,158.9z M328,422.9c0.4,2.2,0.9,4.9,1.3,7.1l5.8-5.4C332.5,424.2,330.2,423.8,328,422.9z M123.3,423.4
		c-2.2,0.4-4.5,1.3-7.1,1.8l5.4,5.4C122.4,427.8,122.9,425.6,123.3,423.4L123.3,423.4z M123.3,158.9c-0.4-2.2-0.9-4.5-1.3-7.1
		l-5.8,5.4C118.4,157.6,121.1,158.5,123.3,158.9z M123.3,158.9c32.5,8.9,66,12.9,100.3,12.9c34.8,0,69.1-4.5,103.9-12.9
		c-8.9,39.2-13.4,81.2-13.4,126.6c0,45.9,4.5,91.4,13.4,137.3c-31.2-8.5-63.8-12.9-99-12.9s-70.4,4.5-105.7,12.9
		c8.9-43.3,13.4-87.4,13.4-132C136.7,247.2,132.3,203.1,123.3,158.9z"/>
</g>
<path fill="#F5A623" d="M204.9,257.9c0,0,44.6-4.5,54-2.2c9.4,2.2,17.4,4.9,19.6,10.3c2.2,5.8,2.2,16.1,2.2,16.1s-2.2-2.2-4.5,0
	c-2.2,2.2-3.6,6.7,0,10.3c3.6,3.6,9.4,3.6,9.4,6.7c0,1.8-6.2,10.7-10.3,23.2c-4.5,13.8-6.7,31.2-6.7,31.2s-5.8,4.5-11.6,3.6
	c-5.8-1.3,1.3-10.3,1.3-10.3s5.8-23.2,3.6-28.5c-2.2-5.4-20.5-12.5-23.2-23.2h-14.7c0,0-11.6,1.3-12.5,11.6
	c-1.3,10.3-2.2,34.3-2.2,34.3s1.3,13.8-4.5,16.1c-5.8,2.2-10.3-1.3-9.4-4.5c1.3-3.6,5.8-5.8,5.8-5.8l-2.2-18.3l-1.3,13.8
	c0,0-3.6,12.5-8,12.5c-4.5,0-6.7,0-6.7-4.5s6.7-5.8,6.7-5.8s4.5-27.6,2.2-37.9c-2.2-10.3-10.3-23.2-9.4-32.1
	c1.3-9.4,2.2-12.5,1.3-16.1c-1.3-3.6-4.5-10.3-3.6-13.8c0,0-12.5-5.8-12.5-15.2c0,0,8-5.8,18.3,4.5c0,0,13.8-1.3,17.4,1.3
	c0,0,11.6-11.6,18.3-10.3c0,0,3.6,12.5-13.8,18.3c0,0,0.9,2.7,0,4.5C206.3,250.8,203.6,253.9,204.9,257.9"/>
</svg>
